<svg xmlns="http://www.w3.org/2000/svg" viewBox="0 0 120 120">
  <defs>
    <linearGradient id="megafone" x1="22" y1="38" x2="88" y2="82" gradientUnits="userSpaceOnUse">
      <stop stop-color="#3c79c4"/>
      <stop offset="1" stop-color="#173f79"/>
    </linearGradient>
  </defs>
  <path d="M27 48h19L82 30v52L46 64H27a8 8 0 0 1-8-8 8 8 0 0 1 8-8Z" fill="url(#megafone)"/>
  <path d="M46 48v16" fill="none" stroke="#fff" stroke-width="4" stroke-linecap="round" opacity=".8"/>
  <path d="m37 65 7 25H31l-7-25h13Z" fill="#2356a3"/>
  <path d="M84 30v52" fill="none" stroke="#173f79" stroke-width="5" stroke-linecap="round"/>
  <path d="M92 45c4 3 6 7 6 11s-2 8-6 11M99 35c7 6 11 13 11 21s-4 15-11 21" fill="none" stroke="#2f6bbb" stroke-width="5" stroke-linecap="round"/>
  <circle cx="28" cy="56" r="3" fill="#fff" opacity=".72"/>
</svg>
